<svg width="21" height="20" viewBox="0 0 21 20" fill="none" xmlns="http://www.w3.org/2000/svg">
<path d="M17.1606 11.1083H17.4813V10.4789H18.1227V10.1642H17.4813V9.53473H17.1606V10.1642H16.5193V10.4789H17.1606V11.1083ZM17.321 11.8951C17.0992 11.8951 16.8907 11.8538 16.6956 11.7711C16.5005 11.6885 16.3308 11.5764 16.1865 11.4349C16.0422 11.2932 15.928 11.1267 15.8439 10.9352C15.7598 10.7438 15.7176 10.5392 15.7175 10.3215C15.7175 10.1038 15.7596 9.89928 15.8439 9.70782C15.9281 9.51637 16.0423 9.34983 16.1865 9.2082C16.3308 9.06658 16.5005 8.95449 16.6956 8.87192C16.8907 8.78936 17.0992 8.74803 17.321 8.74792C17.5428 8.74792 17.7512 8.78926 17.9463 8.87192C18.1414 8.95459 18.3111 9.06668 18.4554 9.2082C18.5997 9.34983 18.714 9.51637 18.7982 9.70782C18.8825 9.89928 18.9245 10.1038 18.9244 10.3215C18.9244 10.5392 18.8823 10.7438 18.7981 10.9352C18.7138 11.1267 18.5996 11.2932 18.4554 11.4349C18.3111 11.5765 18.1414 11.6886 17.9463 11.7713C17.7512 11.854 17.5428 11.8952 17.321 11.8951Z" fill="black"/>
<rect x="2.24348" y="14.0369" width="2.81034" height="0.352442" fill="black" stroke="white" stroke-width="0.155172"/>
<rect x="0.17451" y="14.8492" width="2.81034" height="0.352442" fill="black" stroke="white" stroke-width="0.155172"/>
<rect x="2.24348" y="15.6613" width="1.05172" height="0.352442" fill="black" stroke="white" stroke-width="0.155172"/>
<mask id="path-5-inside-1_104_506" fill="white">
<path d="M8.63122 0.90109C10.2731 0.623533 11.9599 0.761265 13.5324 1.30128C15.105 1.8413 16.5113 2.76577 17.6186 3.9874C18.7259 5.20903 19.4977 6.68749 19.861 8.28316C20.2243 9.87884 20.1671 11.5391 19.695 13.107C19.2228 14.675 18.3511 16.099 17.1624 17.2445C15.9736 18.39 14.5069 19.2193 12.9008 19.6539C11.2947 20.0886 9.60225 20.1143 7.98323 19.7286C6.3642 19.343 4.87206 18.5587 3.64772 17.4499L3.86298 17.2209C5.04768 18.2939 6.4915 19.0528 8.05809 19.4259C9.62469 19.7991 11.2623 19.7742 12.8164 19.3536C14.3705 18.9331 15.7897 18.1307 16.94 17.0223C18.0903 15.9138 18.9337 14.536 19.3906 13.0188C19.8474 11.5015 19.9027 9.89509 19.5512 8.35109C19.1997 6.80709 18.4529 5.3765 17.3815 4.19444C16.31 3.01237 14.9492 2.11783 13.4276 1.5953C11.906 1.07278 10.2738 0.939505 8.6851 1.20807L8.63122 0.90109Z"/>
</mask>
<path d="M8.63122 0.90109C10.2731 0.623533 11.9599 0.761265 13.5324 1.30128C15.105 1.8413 16.5113 2.76577 17.6186 3.9874C18.7259 5.20903 19.4977 6.68749 19.861 8.28316C20.2243 9.87884 20.1671 11.5391 19.695 13.107C19.2228 14.675 18.3511 16.099 17.1624 17.2445C15.9736 18.39 14.5069 19.2193 12.9008 19.6539C11.2947 20.0886 9.60225 20.1143 7.98323 19.7286C6.3642 19.343 4.87206 18.5587 3.64772 17.4499L3.86298 17.2209C5.04768 18.2939 6.4915 19.0528 8.05809 19.4259C9.62469 19.7991 11.2623 19.7742 12.8164 19.3536C14.3705 18.9331 15.7897 18.1307 16.94 17.0223C18.0903 15.9138 18.9337 14.536 19.3906 13.0188C19.8474 11.5015 19.9027 9.89509 19.5512 8.35109C19.1997 6.80709 18.4529 5.3765 17.3815 4.19444C16.31 3.01237 14.9492 2.11783 13.4276 1.5953C11.906 1.07278 10.2738 0.939505 8.6851 1.20807L8.63122 0.90109Z" stroke="black" stroke-width="0.62069" mask="url(#path-5-inside-1_104_506)"/>
<mask id="path-6-inside-2_104_506" fill="white">
<path d="M0.900432 13.124C0.477509 11.729 0.382641 10.258 0.622975 8.82188C0.863309 7.38571 1.43258 6.02179 2.2879 4.83284L2.54721 5.0125C1.71958 6.16295 1.16874 7.4827 0.936193 8.87236C0.703642 10.262 0.795437 11.6854 1.20466 13.0352L0.900432 13.124Z"/>
</mask>
<path d="M0.900432 13.124C0.477509 11.729 0.382641 10.258 0.622975 8.82188C0.863309 7.38571 1.43258 6.02179 2.2879 4.83284L2.54721 5.0125C1.71958 6.16295 1.16874 7.4827 0.936193 8.87236C0.703642 10.262 0.795437 11.6854 1.20466 13.0352L0.900432 13.124Z" stroke="black" stroke-width="0.62069" mask="url(#path-6-inside-2_104_506)"/>
<path d="M6.32104 6.10341C6.32104 5.14358 7.09914 4.36548 8.05898 4.36548H14.5107V16.2775H6.32104V6.10341Z" fill="black"/>
<rect x="8.51074" y="5.60071" width="5.67241" height="0.423012" rx="0.211506" fill="white"/>
<rect x="8.16589" y="6.36206" width="6.01724" height="0.423012" rx="0.211506" fill="white"/>
<rect x="6.66589" y="7.12354" width="4.53448" height="0.423012" rx="0.211506" fill="white"/>
<rect x="11.5452" y="7.12354" width="2.63793" height="0.423012" rx="0.211506" fill="white"/>
<rect x="10.821" y="7.88489" width="3.36207" height="0.439932" rx="0.219966" fill="white"/>
<rect x="6.66589" y="7.88489" width="3.84483" height="0.439932" rx="0.219966" fill="white"/>
<rect x="6.66589" y="8.66333" width="7.51724" height="0.423012" rx="0.211506" fill="white"/>
<rect x="6.66589" y="9.54309" width="4.58621" height="0.423012" rx="0.211506" fill="white"/>
<rect x="11.6486" y="9.54309" width="2.53448" height="0.423012" rx="0.211506" fill="white"/>
<rect x="8.51074" y="10.4399" width="5.67241" height="0.423012" rx="0.211506" fill="white"/>
<rect x="6.66589" y="10.4399" width="1.5" height="0.423012" rx="0.211506" fill="white"/>
<path d="M10.4159 11.9797C9.2922 11.9797 8.3728 12.882 8.3728 13.9848C8.3728 15.0876 9.2922 15.9899 10.4159 15.9899C11.5396 15.9899 12.459 15.0876 12.459 13.9848C12.459 12.882 11.5396 11.9797 10.4159 11.9797ZM10.4159 15.5889C9.5149 15.5889 8.78142 14.8691 8.78142 13.9848C8.78142 13.1006 9.5149 12.3808 10.4159 12.3808C11.3169 12.3808 12.0504 13.1006 12.0504 13.9848C12.0504 14.8691 11.3169 15.5889 10.4159 15.5889ZM11.3537 13.0986L10.0073 14.4199L9.47812 13.9026L9.19004 14.1853L10.0073 14.9874L11.6418 13.3833L11.3537 13.0986Z" fill="white"/>
<path d="M5.37244 0.0771484C6.11575 0.0779188 6.82872 0.3684 7.35388 0.883789C7.87893 1.39912 8.17341 2.09806 8.17419 2.82617C8.1741 3.36916 8.01004 3.89982 7.70251 4.35156C7.39488 4.8034 6.95769 5.15607 6.44568 5.36426C5.93355 5.57244 5.36933 5.62666 4.82556 5.52051C4.28199 5.4143 3.78261 5.15288 3.39099 4.76855C2.99929 4.38413 2.73335 3.89411 2.62537 3.36133C2.51742 2.82858 2.5727 2.27634 2.78455 1.77441C2.99643 1.27252 3.3551 0.843113 3.8158 0.541016C4.27645 0.238972 4.81816 0.0772269 5.37244 0.0771484ZM6.33435 0.544922C5.87518 0.358271 5.36956 0.309159 4.8822 0.404297C4.39498 0.499489 3.94764 0.735051 3.59607 1.08008C3.24445 1.42517 3.00472 1.86469 2.90759 2.34375C2.81051 2.82275 2.85986 3.31937 3.05017 3.77051C3.24062 4.22174 3.56354 4.60783 3.97693 4.87891C4.39013 5.14979 4.87579 5.29387 5.37244 5.29395H5.37341C6.0391 5.29308 6.67757 5.03359 7.1488 4.57129C7.62015 4.10872 7.88623 3.48097 7.88708 2.82617C7.88708 2.33764 7.73866 1.86007 7.46228 1.4541C7.18587 1.04813 6.79354 0.731585 6.33435 0.544922ZM5.37244 1.16406C5.41107 1.16406 5.4481 1.17968 5.47498 1.20605C5.50167 1.23227 5.51684 1.2673 5.51697 1.30371V1.59961H6.03748C6.07604 1.59966 6.11318 1.61429 6.14001 1.64062C6.16669 1.66693 6.18103 1.70278 6.18103 1.73926C6.18094 1.77555 6.16652 1.81071 6.14001 1.83691C6.11318 1.86325 6.07604 1.87886 6.03748 1.87891H5.04041C4.93232 1.87896 4.82824 1.9207 4.75134 1.99609C4.67435 2.07165 4.63125 2.17473 4.63123 2.28223C4.63123 2.38975 4.67433 2.49278 4.75134 2.56836C4.82825 2.6438 4.93228 2.68549 5.04041 2.68555H5.70544C5.89077 2.68564 6.06798 2.75855 6.19861 2.88672C6.32928 3.01496 6.40271 3.18842 6.40271 3.36914C6.40271 3.54985 6.32928 3.72333 6.19861 3.85156C6.06798 3.97972 5.89076 4.05264 5.70544 4.05273H5.51697V4.34766C5.51686 4.38408 5.50167 4.41908 5.47498 4.44531C5.4481 4.47169 5.41107 4.4873 5.37244 4.4873C5.33396 4.4872 5.29766 4.47159 5.27087 4.44531C5.24414 4.41908 5.22899 4.38411 5.22888 4.34766V4.05273H4.70837C4.66975 4.05273 4.63271 4.03712 4.60583 4.01074C4.57913 3.98443 4.56482 3.94861 4.56482 3.91211C4.56493 3.87579 4.57928 3.84065 4.60583 3.81445C4.63271 3.78808 4.66975 3.77246 4.70837 3.77246H5.70544C5.81352 3.77236 5.91764 3.7307 5.99451 3.65527C6.07152 3.5797 6.11462 3.47666 6.11462 3.36914C6.11462 3.26162 6.07152 3.15859 5.99451 3.08301C5.91763 3.00757 5.81353 2.96592 5.70544 2.96582H5.04041C4.85505 2.96577 4.6779 2.89282 4.54724 2.76465C4.41657 2.63641 4.34314 2.46294 4.34314 2.28223C4.34316 2.10154 4.41659 1.92802 4.54724 1.7998C4.6779 1.67168 4.85509 1.59966 5.04041 1.59961H5.22888V1.30371C5.22901 1.26728 5.24416 1.23227 5.27087 1.20605C5.29765 1.1798 5.33398 1.16417 5.37244 1.16406Z" fill="black" stroke="white" stroke-width="0.155172"/>
</svg>
