<svg width="508" height="174" viewBox="0 0 508 174" fill="none" xmlns="http://www.w3.org/2000/svg">
<path d="M49.2606 80.5722C26.2723 110.546 6.84175 116.725 0 116.068V160.456C0 167.936 6.06399 174 13.5443 174H493.101C501.33 174 508 167.33 508 159.101V15.4973C506.974 18.7839 501.021 24.5683 485.422 21.4132C465.923 17.4692 423.846 -29.858 380.743 30.287C337.64 90.4321 323.273 70.7124 286.327 38.1749C249.382 5.63741 225.778 29.301 198.069 64.7965C175.901 93.1928 134.783 77.9429 116.994 66.7684C103.995 58.8806 72.2489 50.5983 49.2606 80.5722Z" fill="url(#paint0_linear_104_671)"/>
<defs>
<linearGradient id="paint0_linear_104_671" x1="254" y1="-1.94785e-07" x2="251.943" y2="214.781" gradientUnits="userSpaceOnUse">
<stop stop-color="#39FAA0" stop-opacity="0.42"/>
<stop offset="0.817708" stop-color="white" stop-opacity="0"/>
</linearGradient>
</defs>
</svg>
