<svg width="21" height="20" viewBox="0 0 21 20" fill="none" xmlns="http://www.w3.org/2000/svg">
<path d="M12.1585 3.29261C10.0342 3.29261 8.31212 4.24227 8.31212 5.41544C8.31212 6.58861 10.0347 7.53876 12.1585 7.53876C14.2828 7.53876 16.0049 6.58861 16.0049 5.41544C16.0049 4.24227 14.2823 3.29261 12.1585 3.29261ZM16.0049 6.04608C16.0039 7.21925 14.2828 8.16941 12.1585 8.16941C10.0401 8.16941 8.32196 7.22959 8.31212 6.06184V6.89236C8.31212 7.39353 8.6331 7.85236 9.15888 8.21568C9.69058 8.36042 10.1642 8.56128 10.5585 8.81531C11.0474 8.93938 11.585 9.01519 12.1585 9.01519C14.2828 9.01519 16.0049 8.06553 16.0049 6.89236V6.04608ZM16.0049 7.52301C16.0049 8.69618 14.2828 9.64633 12.1585 9.64633C11.9001 9.64633 11.649 9.62713 11.4048 9.60005C11.5975 9.85956 11.7289 10.1593 11.7893 10.4769C11.9119 10.4837 12.033 10.4921 12.1585 10.4921C14.2828 10.4921 16.0049 9.54245 16.0049 8.36928V7.52301ZM7.23544 8.7075C5.11113 8.7075 3.38904 9.65765 3.38904 10.8308C3.38904 12.004 5.11162 12.9541 7.23544 12.9541C9.35975 12.9541 11.0818 12.004 11.0818 10.8308C11.0818 9.65765 9.35925 8.7075 7.23544 8.7075ZM16.0049 8.99993C16.0039 10.1731 14.2828 11.1233 12.1585 11.1233C12.0349 11.1233 11.9099 11.1144 11.7893 11.1075C11.7839 11.1444 11.7809 11.1937 11.774 11.2306C11.7986 11.3049 11.8198 11.3783 11.8198 11.462V11.9543C11.9316 11.9597 12.0438 11.969 12.1585 11.969C14.2828 11.969 16.0049 11.0194 16.0049 9.84621V8.99993ZM16.0049 10.4769C16.0039 11.65 14.2828 12.6002 12.1585 12.6002C12.0349 12.6002 11.9099 12.5913 11.7893 12.5844C11.7839 12.6213 11.7809 12.6706 11.774 12.7075C11.7986 12.7813 11.8198 12.8552 11.8198 12.9389V13.4312C11.9316 13.4366 12.0438 13.446 12.1585 13.446C14.2828 13.446 16.0049 12.4963 16.0049 11.3231V10.4769ZM11.0818 11.4615C11.0809 12.6346 9.35975 13.5848 7.23544 13.5848C5.11704 13.5848 3.39888 12.645 3.38904 11.4767V12.3077C3.38904 13.4809 5.11064 14.4311 7.23544 14.4311C9.36024 14.4311 11.0818 13.4809 11.0818 12.3077V11.4615ZM11.0818 12.9384C11.0809 14.1116 9.35975 15.0617 7.23544 15.0617C5.11704 15.0617 3.39888 14.1219 3.38904 12.9537V13.7847C3.38904 14.9578 5.11064 15.908 7.23544 15.908C9.36024 15.908 11.0818 14.9578 11.0818 13.7847V12.9384Z" fill="black"/>
<circle cx="10.0969" cy="10" r="9.78" stroke="black" stroke-width="0.44"/>
</svg>
