<svg width="21" height="20" viewBox="0 0 21 20" fill="none" xmlns="http://www.w3.org/2000/svg">
<g clip-path="url(#clip0_104_528)">
<path d="M13.943 0.144568C10.6238 0.144568 7.93303 1.62841 7.93303 3.46149C7.93303 5.29457 10.6246 6.77918 13.943 6.77918C17.2623 6.77918 19.953 5.29457 19.953 3.46149C19.953 1.62841 17.2615 0.144568 13.943 0.144568ZM19.953 4.44688C19.9515 6.27995 17.2623 7.76457 13.943 7.76457C10.633 7.76457 7.94842 6.29611 7.93303 4.47149V5.76918C7.93303 6.55226 8.43457 7.26918 9.25611 7.83688C10.0869 8.06303 10.8269 8.37688 11.443 8.7738C12.2069 8.96765 13.0469 9.08611 13.943 9.08611C17.2623 9.08611 19.953 7.60226 19.953 5.76918V4.44688ZM19.953 6.75457C19.953 8.58765 17.2623 10.0723 13.943 10.0723C13.5392 10.0723 13.1469 10.0423 12.7653 9.99995C13.0664 10.4054 13.2718 10.8738 13.3661 11.37C13.5576 11.3807 13.7469 11.3938 13.943 11.3938C17.2623 11.3938 19.953 9.90995 19.953 8.07688V6.75457ZM6.25072 8.60534C2.93149 8.60534 0.240723 10.09 0.240723 11.923C0.240723 13.7561 2.93226 15.2407 6.25072 15.2407C9.56995 15.2407 12.2607 13.7561 12.2607 11.923C12.2607 10.09 9.56919 8.60534 6.25072 8.60534ZM19.953 9.06226C19.9515 10.8953 17.2623 12.38 13.943 12.38C13.75 12.38 13.5546 12.3661 13.3661 12.3553C13.3576 12.413 13.353 12.49 13.3423 12.5476C13.3807 12.6638 13.4138 12.7784 13.4138 12.9092V13.6784C13.5884 13.6869 13.7638 13.7015 13.943 13.7015C17.2623 13.7015 19.953 12.2176 19.953 10.3846V9.06226ZM19.953 11.37C19.9515 13.203 17.2623 14.6876 13.943 14.6876C13.75 14.6876 13.5546 14.6738 13.3661 14.663C13.3576 14.7207 13.353 14.7976 13.3423 14.8553C13.3807 14.9707 13.4138 15.0861 13.4138 15.2169V15.9861C13.5884 15.9946 13.7638 16.0092 13.943 16.0092C17.2623 16.0092 19.953 14.5253 19.953 12.6923V11.37ZM12.2607 12.9084C12.2592 14.7415 9.56995 16.2261 6.25072 16.2261C2.94072 16.2261 0.256107 14.7576 0.240723 12.9323V14.2307C0.240723 16.0638 2.93072 17.5484 6.25072 17.5484C9.57072 17.5484 12.2607 16.0638 12.2607 14.2307V12.9084ZM12.2607 15.2161C12.2592 17.0492 9.56995 18.5338 6.25072 18.5338C2.94072 18.5338 0.256107 17.0653 0.240723 15.24V16.5384C0.240723 18.3715 2.93072 19.8561 6.25072 19.8561C9.57072 19.8561 12.2607 18.3715 12.2607 16.5384V15.2161Z" fill="black"/>
</g>
<defs>
<clipPath id="clip0_104_528">
<rect width="20" height="20" fill="white" transform="translate(0.0969238)"/>
</clipPath>
</defs>
</svg>
